<svg xmlns="http://www.w3.org/2000/svg" width="256" height="256" viewBox="0 0 100 100"><rect width="100" height="100" rx="20" fill="#000000"></rect><path d="M40.21 28.29L40.21 28.29Q43.49 24.17 51.81 22.66L51.81 22.66Q55.42 22.07 59.20 22.07Q62.98 22.07 67.01 22.74L67.01 22.74Q69.19 20.31 71.46 20.31L71.46 20.31Q72.05 20.31 72.26 20.60Q72.47 20.89 72.22 21.23Q71.97 21.57 71.08 21.86Q70.20 22.15 69.03 23.16L69.03 23.16Q71.88 24.00 72.97 24.55Q74.07 25.09 74.61 25.93Q75.16 26.77 75.16 27.11L75.16 27.11Q75.16 27.87 72.85 27.11Q70.54 26.35 67.43 25.93L67.43 25.93Q65.92 29.55 64.24 35.85Q62.56 42.15 62.22 43.41L62.22 43.41Q66.76 42.31 68.31 42.31Q69.87 42.31 70.20 42.52Q70.54 42.73 70.58 43.07Q70.62 43.41 70.45 43.62Q70.29 43.83 69.91 43.66Q69.53 43.49 68.52 43.49Q67.51 43.49 64.74 44.20Q61.97 44.92 61.47 46.35L61.47 46.35Q53.74 67.60 41.81 75.91L41.81 75.91Q36.52 79.69 32.15 79.69L32.15 79.69Q30.55 79.69 29.13 79.19L29.13 79.19Q24.84 77.76 24.84 72.85Q24.84 67.93 29.97 62.05L29.97 62.05Q40.30 50.21 57.85 44.67L57.85 44.67Q58.11 43.91 59.45 39.71L59.45 39.71Q62.39 30.13 64.91 25.77L64.91 25.77Q63.90 25.77 61.89 25.77Q59.87 25.77 56.17 26.19L56.17 26.19Q46.68 27.28 42.65 30.97L42.65 30.97Q40.55 32.99 40.55 35.59L40.55 35.59Q40.55 36.85 41.26 37.86Q41.98 38.87 42.65 39.29L42.65 39.29Q43.74 40.05 45.59 40.97L45.59 40.97Q46.60 41.73 46.01 41.89L46.01 41.89Q45.76 41.89 45.42 41.81L45.42 41.81Q43.41 41.39 41.14 39.37Q38.87 37.36 38.79 34.75L38.79 34.75Q38.53 33.83 38.53 33.24L38.53 33.24Q38.53 30.47 40.21 28.29ZM29.21 72.22L29.21 72.22Q29.21 73.14 29.38 74.07L29.38 74.07Q30.22 77.26 33.58 77.26L33.58 77.26Q38.53 77.26 43.99 70.62L43.99 70.62Q52.06 60.79 57.35 46.26L57.35 46.26Q42.65 51.05 34.08 61.80L34.08 61.80Q29.21 67.77 29.21 72.22Z" fill="#fff"></path></svg>